<?xml version="1.0" encoding="UTF-8" standalone="no"?>
<svg
   xmlns:dc="http://purl.org/dc/elements/1.1/"
   xmlns:cc="http://creativecommons.org/ns#"
   xmlns:rdf="http://www.w3.org/1999/02/22-rdf-syntax-ns#"
   xmlns:svg="http://www.w3.org/2000/svg"
   xmlns="http://www.w3.org/2000/svg"
   xmlns:sodipodi="http://sodipodi.sourceforge.net/DTD/sodipodi-0.dtd"
   xmlns:inkscape="http://www.inkscape.org/namespaces/inkscape"
   width="210mm"
   height="297mm"
   viewBox="0 0 210 297"
   version="1.1"
   id="svg8"
   inkscape:version="1.0.2 (e86c870879, 2021-01-15)"
   sodipodi:docname="logo.svg">
  <defs
     id="defs2" />
  <sodipodi:namedview
     id="base"
     pagecolor="#ffffff"
     bordercolor="#666666"
     borderopacity="1.0"
     inkscape:pageopacity="0.0"
     inkscape:pageshadow="2"
     inkscape:zoom="1.9446402"
     inkscape:cx="399.34732"
     inkscape:cy="116.58981"
     inkscape:document-units="mm"
     inkscape:current-layer="layer1"
     inkscape:document-rotation="0"
     showgrid="false"
     inkscape:window-width="1920"
     inkscape:window-height="1008"
     inkscape:window-x="0"
     inkscape:window-y="0"
     inkscape:window-maximized="1" />
  <metadata
     id="metadata5">
    <rdf:RDF>
      <cc:Work
         rdf:about="">
        <dc:format>image/svg+xml</dc:format>
        <dc:type
           rdf:resource="http://purl.org/dc/dcmitype/StillImage" />
        <dc:title></dc:title>
      </cc:Work>
    </rdf:RDF>
  </metadata>
  <g
     inkscape:label="Layer 1"
     inkscape:groupmode="layer"
     id="layer1">
    <rect
       style="fill:#808000;fill-opacity:1;stroke:none;stroke-width:2.11667;stroke-miterlimit:4;stroke-dasharray:none;stroke-opacity:1"
       id="rect977"
       width="42.944141"
       height="45.198257"
       x="135.37059"
       y="-8.5864725" />
    <g
       id="g882">
      <rect
         style="fill:#ff0000;stroke-width:0.188851"
         id="rect833"
         width="16"
         height="16"
         x="-3.9892578e-07"
         y="7.6416018e-07" />
      <path
         id="rect835"
         style="fill:#ffffff;stroke-width:0.172963"
         d="M 6,4 H 8 L 0,16 h -8 z"
         sodipodi:nodetypes="ccccc" />
      <path
         id="rect835-3"
         style="fill:#ffffff;stroke-width:0.172963"
         d="m 16,0 h 8 L 10,12 H 8 Z"
         sodipodi:nodetypes="ccccc" />
      <path
         id="rect875"
         style="fill:#ff0000;fill-opacity:1;stroke-width:0.201173"
         d="m 4.4291437,6.2060389 4.4721037,3e-7 2.6696076,3.5879234 -4.4721056,-3.5e-6 z"
         sodipodi:nodetypes="ccccc" />
    </g>
    <path
       id="rect833-7"
       style="fill:#ff0000;stroke-width:0.188851"
       d="M 35.34121,-0.11795558 V 9.0251556 l 6.000149,-5.1428385 h 1.99988 L 41.870526,6.0883838 H 39.770395 L 40.877822,7.5771818 35.34121,15.8821 H 51.341267 V 6.739507 l -6.000152,5.142838 h -1.999876 l 1.47071,-2.2060665 h 2.10013 l -1.107943,-1.488798 5.537131,-8.30543608 z" />
    <path
       id="rect833-7-6"
       style="fill:#ff0000;stroke-width:0.188851"
       d="m 64.127319,0.13217784 -2.419107,9.14311096 7.360854,-5.142839 h 1.99988 l -2.0544,2.206067 h -2.100131 l 0.713518,1.488798 -7.733948,8.3049182 h 16.000057 l 2.41897,-9.1425932 -7.360857,5.1428382 h -1.999876 l 2.054397,-2.2060662 h 2.10013 l -0.714034,-1.488798 7.734604,-8.30543596 z" />
    <path
       id="rect833-7-6-2"
       style="fill:#ff0000;stroke:#000000;stroke-width:1.05833;stroke-miterlimit:4;stroke-dasharray:none;stroke-opacity:1"
       d="M 95.286135,-0.12994335 92.867028,9.0131682 100.22788,3.8703287 h 1.99988 l -2.0544,2.206067 h -2.100129 l 0.713518,1.4887985 -7.733948,8.3049188 h 16.000059 l 2.41897,-9.1425948 -7.36086,5.1428398 h -1.99988 l 2.0544,-2.2060674 h 2.10013 l -0.71403,-1.4887984 7.7346,-8.30543555 z" />
    <g
       id="g991"
       transform="translate(1.7810986,-7.1113467)"
       inkscape:export-xdpi="129.54579"
       inkscape:export-ydpi="129.54579">
      <g
         id="g983"
         style="stroke:#ffffff;stroke-width:2.11667;stroke-miterlimit:4;stroke-dasharray:none;stroke-opacity:1"
         transform="translate(19.418562,2.0643671)">
        <path
           id="path979"
           style="fill:#ff0000;stroke:#ffffff;stroke-width:2.11667;stroke-miterlimit:4;stroke-dasharray:none;stroke-opacity:1"
           d="m 126.54662,5.9309037 -2.41911,9.1431113 7.36085,-5.1428393 h 1.99988 l -2.0544,2.2060673 h -2.10012 l 0.71351,1.488798 -7.73394,8.304919 h 16.00005 l 2.41897,-9.142595 -7.36086,5.14284 h -1.99988 l 2.0544,-2.206067 h 2.10013 l -0.71403,-1.488799 7.7346,-8.3054353 z" />
        <path
           id="path981"
           style="fill:#ff0000;stroke:#ffffff;stroke-width:2.11667;stroke-miterlimit:4;stroke-dasharray:none;stroke-opacity:1"
           d="m 126.54662,5.9309037 -2.41911,9.1431113 7.36085,-5.1428393 h 1.99988 l -2.0544,2.2060673 h -2.10012 l 0.71351,1.488798 -7.73394,8.304919 h 16.00005 l 2.41897,-9.142595 -7.36086,5.14284 h -1.99988 l 2.0544,-2.206067 h 2.10013 l -0.71403,-1.488799 7.7346,-8.3054353 z" />
      </g>
      <g
         id="g975"
         style="stroke-width:1;stroke-miterlimit:4;stroke-dasharray:none"
         transform="translate(19.418562,2.0643671)">
        <path
           id="path971"
           style="fill:#ff0000;stroke:#ffffff;stroke-width:1;stroke-miterlimit:4;stroke-dasharray:none;stroke-opacity:1"
           d="m 126.54662,5.9309037 -2.41911,9.1431113 7.36085,-5.1428393 h 1.99988 l -2.0544,2.2060673 h -2.10012 l 0.71351,1.488798 -7.73394,8.304919 h 16.00005 l 2.41897,-9.142595 -7.36086,5.14284 h -1.99988 l 2.0544,-2.206067 h 2.10013 l -0.71403,-1.488799 7.7346,-8.3054353 z" />
        <path
           id="path969"
           style="fill:#ff0000;stroke:#000000;stroke-width:1;stroke-miterlimit:4;stroke-dasharray:none;stroke-opacity:1"
           d="m 126.54662,5.9309037 -2.41911,9.1431113 7.36085,-5.1428393 h 1.99988 l -2.0544,2.2060673 h -2.10012 l 0.71351,1.488798 -7.73394,8.304919 h 16.00005 l 2.41897,-9.142595 -7.36086,5.14284 h -1.99988 l 2.0544,-2.206067 h 2.10013 l -0.71403,-1.488799 7.7346,-8.3054353 z" />
      </g>
    </g>
    <g
       id="g1605"
       inkscape:export-xdpi="101.59998"
       inkscape:export-ydpi="101.59998">
      <rect
         style="opacity:0.99067379;fill:none;fill-opacity:1;stroke:none;stroke-width:2.58599;stroke-miterlimit:4;stroke-dasharray:none;stroke-opacity:1"
         id="rect1581"
         width="32"
         height="32"
         x="63.522324"
         y="39.883549" />
      <g
         id="g1595"
         transform="matrix(1.195366,0,0,1.195366,-101.99228,36.763312)"
         inkscape:export-xdpi="129.54579"
         inkscape:export-ydpi="129.54579"
         style="opacity:0.989587">
        <g
           id="g1587"
           style="stroke:#ffffff;stroke-width:2.11667;stroke-miterlimit:4;stroke-dasharray:none;stroke-opacity:1"
           transform="translate(19.418562,2.0643671)">
          <path
             id="path1583"
             style="fill:#ff0000;stroke:#ffffff;stroke-width:2.11667;stroke-miterlimit:4;stroke-dasharray:none;stroke-opacity:1"
             d="m 126.54662,5.9309037 -2.41911,9.1431113 7.36085,-5.1428393 h 1.99988 l -2.0544,2.2060673 h -2.10012 l 0.71351,1.488798 -7.73394,8.304919 h 16.00005 l 2.41897,-9.142595 -7.36086,5.14284 h -1.99988 l 2.0544,-2.206067 h 2.10013 l -0.71403,-1.488799 7.7346,-8.3054353 z" />
          <path
             id="path1585"
             style="fill:#ff0000;stroke:#ffffff;stroke-width:2.11667;stroke-miterlimit:4;stroke-dasharray:none;stroke-opacity:1"
             d="m 126.54662,5.9309037 -2.41911,9.1431113 7.36085,-5.1428393 h 1.99988 l -2.0544,2.2060673 h -2.10012 l 0.71351,1.488798 -7.73394,8.304919 h 16.00005 l 2.41897,-9.142595 -7.36086,5.14284 h -1.99988 l 2.0544,-2.206067 h 2.10013 l -0.71403,-1.488799 7.7346,-8.3054353 z" />
        </g>
        <g
           id="g1593"
           style="stroke-width:1;stroke-miterlimit:4;stroke-dasharray:none"
           transform="translate(19.418562,2.0643671)">
          <path
             id="path1589"
             style="fill:#ff0000;stroke:#ffffff;stroke-width:1;stroke-miterlimit:4;stroke-dasharray:none;stroke-opacity:1"
             d="m 126.54662,5.9309037 -2.41911,9.1431113 7.36085,-5.1428393 h 1.99988 l -2.0544,2.2060673 h -2.10012 l 0.71351,1.488798 -7.73394,8.304919 h 16.00005 l 2.41897,-9.142595 -7.36086,5.14284 h -1.99988 l 2.0544,-2.206067 h 2.10013 l -0.71403,-1.488799 7.7346,-8.3054353 z" />
          <path
             id="path1591"
             style="fill:#ff0000;stroke:#000000;stroke-width:1;stroke-miterlimit:4;stroke-dasharray:none;stroke-opacity:1"
             d="m 126.54662,5.9309037 -2.41911,9.1431113 7.36085,-5.1428393 h 1.99988 l -2.0544,2.2060673 h -2.10012 l 0.71351,1.488798 -7.73394,8.304919 h 16.00005 l 2.41897,-9.142595 -7.36086,5.14284 h -1.99988 l 2.0544,-2.206067 h 2.10013 l -0.71403,-1.488799 7.7346,-8.3054353 z" />
        </g>
      </g>
    </g>
  </g>
</svg>
